NotoSerifDisplay-CondensedSemiBold.ufo
<glyph name="exclamdown" format="2">
  <advance width="316"/>
  <unicode hex="00A1"/>
  <outline>
    <contour>
      <point x="86" y="-180" type="line"/>
      <point x="230" y="-180" type="line"/>
      <point x="165" y="316" type="line"/>
      <point x="150" y="316" type="line"/>
    </contour>
    <contour>
      <point x="157" y="398" type="curve" smooth="yes"/>
      <point x="189" y="398"/>
      <point x="214" y="415"/>
      <point x="214" y="470" type="curve" smooth="yes"/>
      <point x="214" y="524"/>
      <point x="189" y="541"/>
      <point x="157" y="541" type="curve" smooth="yes"/>
      <point x="127" y="541"/>
      <point x="100" y="524"/>
      <point x="100" y="470" type="curve" smooth="yes"/>
      <point x="100" y="415"/>
      <point x="127" y="398"/>
    </contour>
  </outline>
</glyph>
<glyph name="uni0191" format="2">
  <advance width="629"/>
  <unicode hex="0191"/>
  <anchor x="141" y="-10" name="bottom"/>
  <anchor x="375" y="714" name="top"/>
  <anchor x="615" y="714" name="topright"/>
  <outline>
    <contour>
      <point x="141" y="-10" type="curve" smooth="yes"/>
      <point x="289" y="-10"/>
      <point x="350" y="79"/>
      <point x="350" y="190" type="curve" smooth="yes"/>
      <point x="350" y="366" type="line"/>
      <point x="545" y="366" type="line"/>
      <point x="545" y="376" type="line"/>
      <point x="350" y="376" type="line"/>
      <point x="350" y="704" type="line"/>
      <point x="464" y="704" type="line" smooth="yes"/>
      <point x="557" y="704"/>
      <point x="586" y="672"/>
      <point x="591" y="566" type="curve" smooth="yes"/>
      <point x="593" y="533" type="line"/>
      <point x="603" y="533" type="line"/>
      <point x="597" y="714" type="line"/>
      <point x="142" y="714" type="line"/>
      <point x="142" y="704" type="line"/>
      <point x="178" y="704" type="line" smooth="yes"/>
      <point x="205" y="704"/>
      <point x="218" y="691"/>
      <point x="218" y="642" type="curve" smooth="yes"/>
      <point x="218" y="123" type="line" smooth="yes"/>
      <point x="218" y="36"/>
      <point x="184" y="0"/>
      <point x="137" y="0" type="curve" smooth="yes"/>
      <point x="80" y="0"/>
      <point x="62" y="49"/>
      <point x="62" y="170" type="curve"/>
      <point x="23" y="170"/>
      <point x="-10" y="153"/>
      <point x="-10" y="100" type="curve" smooth="yes"/>
      <point x="-10" y="43"/>
      <point x="26" y="-10"/>
    </contour>
  </outline>
</glyph>
<glyph name="florin" format="2">
  <advance width="398"/>
  <unicode hex="0192"/>
  <anchor x="103" y="-11" name="bottom"/>
  <anchor x="293" y="770" name="top"/>
  <anchor x="461" y="770" name="topright"/>
  <outline>
    <contour>
      <point x="103" y="-11" type="curve" smooth="yes"/>
      <point x="229" y="-11"/>
      <point x="283" y="60"/>
      <point x="283" y="210" type="curve" smooth="yes"/>
      <point x="283" y="526" type="line"/>
      <point x="395" y="526" type="line"/>
      <point x="395" y="536" type="line"/>
      <point x="283" y="536" type="line"/>
      <point x="283" y="631" type="line" smooth="yes"/>
      <point x="283" y="727"/>
      <point x="295" y="760"/>
      <point x="328" y="760" type="curve" smooth="yes"/>
      <point x="359" y="760"/>
      <point x="366" y="726"/>
      <point x="366" y="631" type="curve"/>
      <point x="436" y="631"/>
      <point x="454" y="659"/>
      <point x="454" y="696" type="curve" smooth="yes"/>
      <point x="454" y="734"/>
      <point x="429" y="770"/>
      <point x="323" y="770" type="curve" smooth="yes"/>
      <point x="201" y="770"/>
      <point x="154" y="699"/>
      <point x="154" y="576" type="curve" smooth="yes"/>
      <point x="154" y="536" type="line"/>
      <point x="82" y="536" type="line"/>
      <point x="82" y="526" type="line"/>
      <point x="154" y="526" type="line"/>
      <point x="154" y="143" type="line" smooth="yes"/>
      <point x="154" y="32"/>
      <point x="142" y="-1"/>
      <point x="109" y="-1" type="curve" smooth="yes"/>
      <point x="75" y="-1"/>
      <point x="68" y="25"/>
      <point x="68" y="120" type="curve"/>
      <point x="5" y="120"/>
      <point x="-10" y="92"/>
      <point x="-10" y="63" type="curve" smooth="yes"/>
      <point x="-10" y="25"/>
      <point x="21" y="-11"/>
    </contour>
  </outline>
</glyph>
<glyph name="uni01C1" format="2">
  <advance width="455"/>
  <unicode hex="01C1"/>
  <anchor x="228" y="0" name="bottom"/>
  <anchor x="228" y="760" name="top"/>
  <outline>
    <contour>
      <point x="266" y="0" type="line"/>
      <point x="336" y="0" type="line"/>
      <point x="336" y="760" type="line"/>
      <point x="266" y="760" type="line"/>
    </contour>
    <contour>
      <point x="119" y="0" type="line"/>
      <point x="189" y="0" type="line"/>
      <point x="189" y="760" type="line"/>
      <point x="119" y="760" type="line"/>
    </contour>
  </outline>
</glyph>
<glyph name="uni023B" format="2">
  <advance width="551"/>
  <unicode hex="023B"/>
  <anchor x="316" y="-78" name="bottom"/>
  <anchor x="316" y="714" name="top"/>
  <anchor x="531" y="714" name="topright"/>
  <outline>
    <contour>
      <point x="180" y="-78" type="line"/>
      <point x="190" y="-78" type="line"/>
      <point x="416" y="760" type="line"/>
      <point x="406" y="760" type="line"/>
    </contour>
    <component base="C"/>
  </outline>
</glyph>
<glyph name="uni0249" format="2">
  <advance width="289"/>
  <unicode hex="0249"/>
  <anchor x="103" y="-240" name="bottom"/>
  <anchor x="146" y="763" name="top"/>
  <anchor x="266" y="763" name="topright"/>
  <outline>
    <contour>
      <point x="8" y="261" type="line"/>
      <point x="285" y="261" type="line"/>
      <point x="285" y="271" type="line"/>
      <point x="8" y="271" type="line"/>
    </contour>
    <component base="j"/>
  </outline>
</glyph>
<glyph name="uni024C" format="2">
  <advance width="598"/>
  <unicode hex="024C"/>
  <anchor x="303" y="0" name="bottom"/>
  <anchor x="303" y="714" name="top"/>
  <anchor x="578" y="714" name="topright"/>
  <outline>
    <contour>
      <point x="22" y="332" type="line"/>
      <point x="120" y="332" type="line"/>
      <point x="120" y="342" type="line"/>
      <point x="22" y="342" type="line"/>
    </contour>
    <component base="R" xOffset="12"/>
  </outline>
</glyph>
<glyph name="uni024E" format="2">
  <advance width="571"/>
  <unicode hex="024E"/>
  <anchor x="285" y="0" name="bottom"/>
  <anchor x="285" y="714" name="top"/>
  <anchor x="551" y="714" name="topright"/>
  <outline>
    <contour>
      <point x="8" y="516" type="line"/>
      <point x="563" y="516" type="line"/>
      <point x="563" y="526" type="line"/>
      <point x="8" y="526" type="line"/>
    </contour>
    <component base="Y"/>
  </outline>
</glyph>
<glyph name="uni024F" format="2">
  <advance width="473"/>
  <unicode hex="024F"/>
  <anchor x="237" y="-229" name="bottom"/>
  <anchor x="237" y="536" name="top"/>
  <anchor x="478" y="536" name="topright"/>
  <outline>
    <contour>
      <point x="8" y="328" type="line"/>
      <point x="466" y="328" type="line"/>
      <point x="466" y="338" type="line"/>
      <point x="8" y="338" type="line"/>
    </contour>
    <component base="y"/>
  </outline>
</glyph>
<glyph name="uni0488" format="2">
  <advance width="806"/>
  <unicode hex="0488"/>
  <outline>
    <contour>
      <point x="87" y="462" type="curve"/>
      <point x="117" y="462" type="line"/>
      <point x="120" y="504"/>
      <point x="137" y="511"/>
      <point x="170" y="511" type="curve" smooth="yes"/>
      <point x="197" y="511"/>
      <point x="221" y="502"/>
      <point x="225" y="462" type="curve"/>
      <point x="255" y="462" type="line"/>
      <point x="251" y="518"/>
      <point x="223" y="557"/>
      <point x="170" y="557" type="curve" smooth="yes"/>
      <point x="115" y="557"/>
      <point x="90" y="520"/>
    </contour>
    <contour>
      <point x="16" y="224" type="curve"/>
      <point x="45" y="224" type="line"/>
      <point x="49" y="266"/>
      <point x="66" y="273"/>
      <point x="99" y="273" type="curve" smooth="yes"/>
      <point x="128" y="273"/>
      <point x="151" y="264"/>
      <point x="154" y="224" type="curve"/>
      <point x="184" y="224" type="line"/>
      <point x="181" y="280"/>
      <point x="151" y="319"/>
      <point x="99" y="319" type="curve" smooth="yes"/>
      <point x="45" y="319"/>
      <point x="19" y="282"/>
    </contour>
    <contour>
      <point x="87" y="-20" type="curve"/>
      <point x="117" y="-20" type="line"/>
      <point x="120" y="22"/>
      <point x="137" y="29"/>
      <point x="170" y="29" type="curve" smooth="yes"/>
      <point x="197" y="29"/>
      <point x="221" y="20"/>
      <point x="225" y="-20" type="curve"/>
      <point x="255" y="-20" type="line"/>
      <point x="251" y="36"/>
      <point x="223" y="75"/>
      <point x="170" y="75" type="curve" smooth="yes"/>
      <point x="115" y="75"/>
      <point x="90" y="38"/>
    </contour>
    <contour>
      <point x="316" y="-156" type="curve"/>
      <point x="345" y="-156" type="line"/>
      <point x="348" y="-114"/>
      <point x="365" y="-107"/>
      <point x="398" y="-107" type="curve" smooth="yes"/>
      <point x="425" y="-107"/>
      <point x="449" y="-116"/>
      <point x="453" y="-156" type="curve"/>
      <point x="483" y="-156" type="line"/>
      <point x="480" y="-100"/>
      <point x="451" y="-61"/>
      <point x="398" y="-61" type="curve" smooth="yes"/>
      <point x="343" y="-61"/>
      <point x="318" y="-98"/>
    </contour>
    <contour>
      <point x="546" y="-20" type="curve"/>
      <point x="575" y="-20" type="line"/>
      <point x="579" y="22"/>
      <point x="596" y="29"/>
      <point x="629" y="29" type="curve" smooth="yes"/>
      <point x="656" y="29"/>
      <point x="679" y="20"/>
      <point x="683" y="-20" type="curve"/>
      <point x="714" y="-20" type="line"/>
      <point x="710" y="36"/>
      <point x="681" y="75"/>
      <point x="629" y="75" type="curve" smooth="yes"/>
      <point x="574" y="75"/>
      <point x="549" y="38"/>
    </contour>
    <contour>
      <point x="622" y="224" type="curve"/>
      <point x="651" y="224" type="line"/>
      <point x="654" y="266"/>
      <point x="672" y="273"/>
      <point x="705" y="273" type="curve" smooth="yes"/>
      <point x="733" y="273"/>
      <point x="756" y="264"/>
      <point x="758.993" y="224" type="curve"/>
      <point x="789" y="224" type="line"/>
      <point x="787" y="280"/>
      <point x="757" y="319"/>
      <point x="705" y="319" type="curve" smooth="yes"/>
      <point x="651" y="319"/>
      <point x="624" y="282"/>
    </contour>
    <contour>
      <point x="546" y="462" type="curve"/>
      <point x="575" y="462" type="line"/>
      <point x="579" y="504"/>
      <point x="596" y="511"/>
      <point x="629" y="511" type="curve" smooth="yes"/>
      <point x="656" y="511"/>
      <point x="679" y="502"/>
      <point x="683" y="462" type="curve"/>
      <point x="714" y="462" type="line"/>
      <point x="710" y="518"/>
      <point x="681" y="557"/>
      <point x="629" y="557" type="curve" smooth="yes"/>
      <point x="574" y="557"/>
      <point x="549" y="520"/>
    </contour>
    <contour>
      <point x="316" y="601" type="curve"/>
      <point x="345" y="601" type="line"/>
      <point x="348" y="643"/>
      <point x="365" y="650"/>
      <point x="398" y="650" type="curve" smooth="yes"/>
      <point x="425" y="650"/>
      <point x="449" y="641"/>
      <point x="453" y="601" type="curve"/>
      <point x="483" y="601" type="line"/>
      <point x="480" y="657"/>
      <point x="451" y="696"/>
      <point x="398" y="696" type="curve" smooth="yes"/>
      <point x="343" y="696"/>
      <point x="318" y="659"/>
    </contour>
  </outline>
</glyph>
<glyph name="uni0489" format="2">
  <advance width="956"/>
  <unicode hex="0489"/>
  <outline>
    <contour>
      <point x="693" y="451" type="line"/>
      <point x="732" y="480"/>
      <point x="790" y="517"/>
      <point x="839" y="547" type="curve"/>
      <point x="807" y="577" type="line"/>
      <point x="756" y="557"/>
      <point x="695" y="529"/>
      <point x="650" y="502" type="curve"/>
      <point x="649" y="495" type="line"/>
    </contour>
    <contour>
      <point x="148" y="-58" type="line"/>
      <point x="200" y="-38"/>
      <point x="261" y="-9"/>
      <point x="305" y="18" type="curve"/>
      <point x="306" y="25" type="line"/>
      <point x="262" y="69" type="line"/>
      <point x="223" y="40"/>
      <point x="165" y="2"/>
      <point x="117" y="-28" type="curve"/>
    </contour>
    <contour>
      <point x="185" y="219" type="curve"/>
      <point x="191" y="223" type="line"/>
      <point x="191" y="285" type="line"/>
      <point x="143" y="293"/>
      <point x="75" y="307"/>
      <point x="20" y="321" type="curve"/>
      <point x="20" y="278" type="line"/>
      <point x="71" y="255"/>
      <point x="134" y="232"/>
    </contour>
    <contour>
      <point x="428" y="-188" type="curve"/>
      <point x="470" y="-188" type="line"/>
      <point x="493" y="-137"/>
      <point x="516" y="-74"/>
      <point x="529" y="-23" type="curve"/>
      <point x="524" y="-17" type="line"/>
      <point x="462" y="-17" type="line"/>
      <point x="455" y="-65"/>
      <point x="441" y="-133"/>
    </contour>
    <contour>
      <point x="765" y="-102" type="curve"/>
      <point x="795" y="-71" type="line"/>
      <point x="775" y="-19"/>
      <point x="746" y="42"/>
      <point x="720" y="87" type="curve"/>
      <point x="713" y="88" type="line"/>
      <point x="669" y="44" type="line"/>
      <point x="698" y="5"/>
      <point x="736" y="-54"/>
    </contour>
    <contour>
      <point x="242" y="431" type="line"/>
      <point x="286" y="474" type="line"/>
      <point x="257" y="513"/>
      <point x="219" y="571"/>
      <point x="189" y="619" type="curve"/>
      <point x="159" y="588" type="line"/>
      <point x="180" y="537"/>
      <point x="208" y="476"/>
      <point x="235" y="431" type="curve"/>
    </contour>
    <contour>
      <point x="936" y="218" type="curve"/>
      <point x="936" y="261" type="line"/>
      <point x="885" y="284"/>
      <point x="821" y="307"/>
      <point x="771" y="320" type="curve"/>
      <point x="765" y="316" type="line"/>
      <point x="765" y="254" type="line"/>
      <point x="813" y="247"/>
      <point x="881" y="232"/>
    </contour>
    <contour>
      <point x="434" y="557" type="line"/>
      <point x="496" y="557" type="line"/>
      <point x="503" y="605"/>
      <point x="517" y="673"/>
      <point x="530" y="728" type="curve"/>
      <point x="487" y="728" type="line"/>
      <point x="465" y="677"/>
      <point x="442" y="614"/>
      <point x="430" y="564" type="curve"/>
    </contour>
  </outline>
</glyph>
<glyph name="uni048A" format="2">
  <advance width="687"/>
  <unicode hex="048A"/>
  <anchor x="344" y="0" name="bottom"/>
  <anchor x="344" y="914" name="top"/>
  <outline>
    <contour>
      <point x="530" y="-210" type="line"/>
      <point x="599" y="-210" type="line"/>
      <point x="650" y="0" type="line"/>
      <point x="649" y="10" type="line"/>
      <point x="641" y="10" type="line"/>
      <point x="641" y="0" type="line"/>
    </contour>
    <component base="afii10026"/>
    <component base="cyrillicbreve" xOffset="122" yOffset="165"/>
  </outline>
</glyph>
<glyph name="uni04B0" format="2">
  <advance width="571"/>
  <unicode hex="04B0"/>
  <anchor x="285" y="0" name="bottom"/>
  <anchor x="285" y="714" name="top"/>
  <anchor x="551" y="714" name="topright"/>
  <outline>
    <contour>
      <point x="104" y="217" type="line"/>
      <point x="470" y="217" type="line"/>
      <point x="470" y="227" type="line"/>
      <point x="104" y="227" type="line"/>
    </contour>
    <component base="Y"/>
  </outline>
</glyph>
<glyph name="uni04B1" format="2">
  <advance width="494"/>
  <unicode hex="04B1"/>
  <anchor x="248" y="-239" name="bottom"/>
  <anchor x="248" y="536" name="top"/>
  <outline>
    <contour>
      <point x="87" y="-20" type="line"/>
      <point x="428" y="-20" type="line"/>
      <point x="428" y="-10" type="line"/>
      <point x="87" y="-10" type="line"/>
    </contour>
    <component base="uni04AF"/>
  </outline>
</glyph>
<glyph name="uni04C6" format="2">
  <advance width="542"/>
  <unicode hex="04C6"/>
  <anchor x="271" y="0" name="bottom"/>
  <anchor x="281" y="536" name="top"/>
  <outline>
    <contour>
      <point x="409" y="-210" type="line"/>
      <point x="478" y="-210" type="line"/>
      <point x="528" y="0" type="line"/>
      <point x="527" y="10" type="line"/>
      <point x="519" y="10" type="line"/>
      <point x="519" y="0" type="line"/>
    </contour>
    <component base="afii10077"/>
  </outline>
</glyph>
<glyph name="uni04C9" format="2">
  <advance width="670"/>
  <unicode hex="04C9"/>
  <anchor x="339" y="0" name="bottom"/>
  <anchor x="339" y="714" name="top"/>
  <anchor x="335" y="357" name="center"/>
  <anchor x="650" y="714" name="topright"/>
  <outline>
    <contour>
      <point x="530" y="-210" type="line"/>
      <point x="598" y="-210" type="line"/>
      <point x="649" y="0" type="line"/>
      <point x="647" y="10" type="line"/>
      <point x="640" y="10" type="line"/>
      <point x="640" y="0" type="line"/>
    </contour>
    <component base="H"/>
  </outline>
</glyph>
<glyph name="uni052D" format="2">
  <advance width="567"/>
  <unicode hex="052D"/>
  <anchor x="250" y="-210" name="bottom"/>
  <anchor x="250" y="536" name="top"/>
  <outline>
    <contour>
      <point x="28" y="-210" type="line"/>
      <point x="38" y="-210" type="line"/>
      <point x="41" y="-146" type="line" smooth="yes"/>
      <point x="47" y="-32"/>
      <point x="79" y="0"/>
      <point x="180" y="0" type="curve" smooth="yes"/>
      <point x="404" y="0" type="line" smooth="yes"/>
      <point x="507" y="0"/>
      <point x="538" y="-34"/>
      <point x="543" y="-149" type="curve" smooth="yes"/>
      <point x="545" y="-210" type="line"/>
      <point x="555" y="-210" type="line"/>
      <point x="555" y="10" type="line"/>
      <point x="531" y="10" type="line" smooth="yes"/>
      <point x="484" y="10"/>
      <point x="477" y="25"/>
      <point x="477" y="81" type="curve" smooth="yes"/>
      <point x="477" y="452" type="line" smooth="yes"/>
      <point x="477" y="511"/>
      <point x="488" y="526"/>
      <point x="529" y="526" type="curve" smooth="yes"/>
      <point x="548" y="526" type="line"/>
      <point x="548" y="536" type="line"/>
      <point x="342" y="536" type="line"/>
      <point x="208" y="252" type="line"/>
      <point x="199" y="263"/>
      <point x="194" y="278"/>
      <point x="194" y="309" type="curve" smooth="yes"/>
      <point x="194" y="460" type="line" smooth="yes"/>
      <point x="194" y="515"/>
      <point x="202" y="526"/>
      <point x="236" y="526" type="curve" smooth="yes"/>
      <point x="244" y="526" type="line"/>
      <point x="244" y="536" type="line"/>
      <point x="4" y="536" type="line"/>
      <point x="4" y="526" type="line"/>
      <point x="12" y="526" type="line" smooth="yes"/>
      <point x="53" y="526"/>
      <point x="64" y="508"/>
      <point x="64" y="456" type="curve" smooth="yes"/>
      <point x="64" y="312" type="line" smooth="yes"/>
      <point x="64" y="238"/>
      <point x="100" y="195"/>
      <point x="175" y="184" type="curve"/>
      <point x="94" y="11" type="line"/>
      <point x="28" y="11" type="line"/>
    </contour>
    <contour>
      <point x="105" y="11" type="line"/>
      <point x="185" y="183" type="line"/>
      <point x="196" y="182"/>
      <point x="207" y="181"/>
      <point x="219" y="181" type="curve" smooth="yes"/>
      <point x="274" y="181"/>
      <point x="314" y="197"/>
      <point x="346" y="218" type="curve"/>
      <point x="346" y="11" type="line"/>
    </contour>
    <contour>
      <point x="257" y="198" type="curve" smooth="yes"/>
      <point x="232" y="198"/>
      <point x="218" y="208"/>
      <point x="213" y="238" type="curve"/>
      <point x="346" y="522" type="line"/>
      <point x="346" y="230" type="line"/>
      <point x="318" y="208"/>
      <point x="290" y="198"/>
    </contour>
  </outline>
</glyph>
<glyph name="uni1ABA" format="2">
  <unicode hex="1ABA"/>
  <anchor x="-374" y="34" name="_bottom"/>
  <anchor x="-374" y="-265" name="bottom"/>
  <outline>
    <contour>
      <point x="-388" y="-231" type="line"/>
      <point x="-312" y="34" type="line"/>
      <point x="-331" y="40" type="line"/>
      <point x="-408" y="-225" type="line"/>
    </contour>
    <contour>
      <point x="-400" y="-279" type="curve" smooth="yes"/>
      <point x="-370" y="-279"/>
      <point x="-351" y="-258"/>
      <point x="-351" y="-221" type="curve" smooth="yes"/>
      <point x="-351" y="-184"/>
      <point x="-370" y="-162"/>
      <point x="-400" y="-162" type="curve" smooth="yes"/>
      <point x="-429" y="-162"/>
      <point x="-449" y="-184"/>
      <point x="-449" y="-221" type="curve" smooth="yes"/>
      <point x="-449" y="-258"/>
      <point x="-429" y="-279"/>
    </contour>
  </outline>
</glyph>
<glyph name="uni1ABF" format="2">
  <unicode hex="1ABF"/>
  <anchor x="0" y="0" name="_bottom"/>
  <outline>
    <contour>
      <point x="-132" y="-89" type="curve" smooth="yes"/>
      <point x="-82" y="-278" type="line"/>
      <point x="-51" y="-278" type="line"/>
      <point x="-5" y="-112" type="line"/>
      <point x="47" y="-278" type="line"/>
      <point x="79" y="-278" type="line"/>
      <point x="123" y="-87" type="line" smooth="yes"/>
      <point x="127" y="-69"/>
      <point x="131" y="-68"/>
      <point x="150" y="-68" type="curve" smooth="yes"/>
      <point x="158" y="-68" type="line"/>
      <point x="158" y="-64" type="line"/>
      <point x="87" y="-64" type="line"/>
      <point x="87" y="-68" type="line"/>
      <point x="104" y="-68" type="line" smooth="yes"/>
      <point x="118" y="-68"/>
      <point x="120" y="-70"/>
      <point x="120" y="-76" type="curve" smooth="yes"/>
      <point x="120" y="-80"/>
      <point x="118" y="-90"/>
      <point x="115" y="-103" type="curve" smooth="yes"/>
      <point x="94" y="-195" type="line" smooth="yes"/>
      <point x="90" y="-213"/>
      <point x="87" y="-228"/>
      <point x="84" y="-240" type="curve"/>
      <point x="83" y="-240" type="line"/>
      <point x="79" y="-224"/>
      <point x="73" y="-204"/>
      <point x="69" y="-190" type="curve" smooth="yes"/>
      <point x="29" y="-64" type="line"/>
      <point x="4" y="-64" type="line"/>
      <point x="-32" y="-195" type="line" smooth="yes"/>
      <point x="-35" y="-206"/>
      <point x="-40" y="-225"/>
      <point x="-44" y="-238" type="curve"/>
      <point x="-45" y="-238" type="line"/>
      <point x="-48" y="-226"/>
      <point x="-50" y="-210"/>
      <point x="-53" y="-199" type="curve" smooth="yes"/>
      <point x="-78" y="-104" type="line" smooth="yes"/>
      <point x="-81" y="-92"/>
      <point x="-85" y="-82"/>
      <point x="-85" y="-76" type="curve" smooth="yes"/>
      <point x="-85" y="-70"/>
      <point x="-81" y="-68"/>
      <point x="-67" y="-68" type="curve" smooth="yes"/>
      <point x="-48" y="-68" type="line"/>
      <point x="-48" y="-64" type="line"/>
      <point x="-157" y="-64" type="line"/>
      <point x="-157" y="-68" type="line"/>
      <point x="-156" y="-68" type="line" smooth="yes"/>
      <point x="-140" y="-68"/>
      <point x="-137" y="-70"/>
    </contour>
  </outline>
</glyph>
<glyph name="uni1AC0" format="2">
  <unicode hex="1AC0"/>
  <anchor x="0" y="0" name="_bottom"/>
  <outline>
    <contour>
      <point x="132" y="-253" type="curve" smooth="yes"/>
      <point x="82" y="-64" type="line"/>
      <point x="51" y="-64" type="line"/>
      <point x="5" y="-230" type="line"/>
      <point x="-47" y="-64" type="line"/>
      <point x="-79" y="-64" type="line"/>
      <point x="-123" y="-255" type="line" smooth="yes"/>
      <point x="-127" y="-273"/>
      <point x="-131" y="-274"/>
      <point x="-150" y="-274" type="curve" smooth="yes"/>
      <point x="-158" y="-274" type="line"/>
      <point x="-158" y="-278" type="line"/>
      <point x="-87" y="-278" type="line"/>
      <point x="-87" y="-274" type="line"/>
      <point x="-104" y="-274" type="line" smooth="yes"/>
      <point x="-118" y="-274"/>
      <point x="-120" y="-272"/>
      <point x="-120" y="-266" type="curve" smooth="yes"/>
      <point x="-120" y="-262"/>
      <point x="-118" y="-252"/>
      <point x="-115" y="-239" type="curve" smooth="yes"/>
      <point x="-94" y="-147" type="line" smooth="yes"/>
      <point x="-90" y="-129"/>
      <point x="-87" y="-114"/>
      <point x="-84" y="-102" type="curve"/>
      <point x="-83" y="-102" type="line"/>
      <point x="-79" y="-118"/>
      <point x="-73" y="-138"/>
      <point x="-69" y="-152" type="curve" smooth="yes"/>
      <point x="-29" y="-278" type="line"/>
      <point x="-4" y="-278" type="line"/>
      <point x="32" y="-147" type="line" smooth="yes"/>
      <point x="35" y="-136"/>
      <point x="40" y="-117"/>
      <point x="44" y="-104" type="curve"/>
      <point x="45" y="-104" type="line"/>
      <point x="48" y="-116"/>
      <point x="50" y="-132"/>
      <point x="53" y="-143" type="curve" smooth="yes"/>
      <point x="78" y="-238" type="line" smooth="yes"/>
      <point x="81" y="-250"/>
      <point x="85" y="-260"/>
      <point x="85" y="-266" type="curve" smooth="yes"/>
      <point x="85" y="-272"/>
      <point x="81" y="-274"/>
      <point x="67" y="-274" type="curve" smooth="yes"/>
      <point x="48" y="-274" type="line"/>
      <point x="48" y="-278" type="line"/>
      <point x="157" y="-278" type="line"/>
      <point x="157" y="-274" type="line"/>
      <point x="156" y="-274" type="line" smooth="yes"/>
      <point x="140" y="-274"/>
      <point x="137" y="-272"/>
    </contour>
  </outline>
</glyph>
<glyph name="uni1D09" format="2">
  <advance width="285"/>
  <unicode hex="1D09"/>
  <anchor x="143" y="-196" name="bottom"/>
  <anchor x="143" y="536" name="top"/>
  <outline>
    <contour>
      <point x="19" y="0" type="line"/>
      <point x="267" y="0" type="line"/>
      <point x="267" y="10" type="line"/>
      <point x="246" y="10" type="line" smooth="yes"/>
      <point x="214" y="10"/>
      <point x="206" y="21"/>
      <point x="206" y="65" type="curve" smooth="yes"/>
      <point x="206" y="472" type="line" smooth="yes"/>
      <point x="206" y="516"/>
      <point x="214" y="526"/>
      <point x="246" y="526" type="curve" smooth="yes"/>
      <point x="268" y="526" type="line"/>
      <point x="268" y="536" type="line"/>
      <point x="19" y="536" type="line"/>
      <point x="19" y="526" type="line"/>
      <point x="41" y="526" type="line" smooth="yes"/>
      <point x="73" y="526"/>
      <point x="81" y="516"/>
      <point x="81" y="472" type="curve" smooth="yes"/>
      <point x="81" y="65" type="line" smooth="yes"/>
      <point x="81" y="21"/>
      <point x="73" y="10"/>
      <point x="41" y="10" type="curve" smooth="yes"/>
      <point x="19" y="10" type="line"/>
    </contour>
    <contour>
      <point x="142" y="-196" type="curve" smooth="yes"/>
      <point x="177" y="-196"/>
      <point x="206" y="-175"/>
      <point x="206" y="-130" type="curve" smooth="yes"/>
      <point x="206" y="-83"/>
      <point x="177" y="-64"/>
      <point x="142" y="-64" type="curve" smooth="yes"/>
      <point x="106" y="-64"/>
      <point x="80" y="-83"/>
      <point x="80" y="-130" type="curve" smooth="yes"/>
      <point x="80" y="-175"/>
      <point x="106" y="-196"/>
    </contour>
  </outline>
</glyph>
<glyph name="uni1D24" format="2">
  <advance width="391"/>
  <unicode hex="1D24"/>
  <anchor x="196" y="0" name="bottom"/>
  <anchor x="196" y="536" name="top"/>
  <outline>
    <contour>
      <point x="211" y="-14" type="curve" smooth="yes"/>
      <point x="313" y="-14"/>
      <point x="369" y="28"/>
      <point x="369" y="96" type="curve" smooth="yes"/>
      <point x="369" y="140"/>
      <point x="346" y="162"/>
      <point x="297" y="162" type="curve"/>
      <point x="297" y="41"/>
      <point x="273" y="-4"/>
      <point x="204" y="-4" type="curve" smooth="yes"/>
      <point x="144" y="-4"/>
      <point x="111" y="30"/>
      <point x="111" y="96" type="curve" smooth="yes"/>
      <point x="111" y="156"/>
      <point x="144" y="179"/>
      <point x="193" y="196" type="curve"/>
      <point x="193" y="239" type="line"/>
      <point x="291" y="263"/>
      <point x="361" y="299"/>
      <point x="361" y="399" type="curve" smooth="yes"/>
      <point x="361" y="495"/>
      <point x="298" y="547"/>
      <point x="189" y="547" type="curve" smooth="yes"/>
      <point x="91" y="547"/>
      <point x="41" y="506"/>
      <point x="41" y="451" type="curve" smooth="yes"/>
      <point x="41" y="412"/>
      <point x="67" y="394"/>
      <point x="116" y="394" type="curve"/>
      <point x="116" y="497"/>
      <point x="137" y="537"/>
      <point x="195" y="537" type="curve" smooth="yes"/>
      <point x="245" y="537"/>
      <point x="275" y="507"/>
      <point x="275" y="449" type="curve" smooth="yes"/>
      <point x="275" y="399"/>
      <point x="246" y="367"/>
      <point x="193" y="351" type="curve"/>
      <point x="193" y="305" type="line"/>
      <point x="98" y="280"/>
      <point x="25" y="243"/>
      <point x="25" y="139" type="curve" smooth="yes"/>
      <point x="25" y="43"/>
      <point x="88" y="-14"/>
    </contour>
  </outline>
</glyph>
<glyph name="uni1D2F" format="2">
  <advance width="370"/>
  <unicode hex="1D2F"/>
  <anchor x="184.6" y="287.0" name="bottom"/>
  <anchor x="184.6" y="715.4" name="top"/>
  <anchor x="356.85" y="715.4" name="topright"/>
  <outline>
    <contour>
      <point x="12" y="509" type="line"/>
      <point x="347" y="509" type="line"/>
      <point x="347" y="515" type="line"/>
      <point x="12" y="515" type="line"/>
    </contour>
    <component base="B" xScale="0.65" yScale="0.6" yOffset="287"/>
  </outline>
</glyph>
<glyph name="uni1D6F" format="2">
  <advance width="808"/>
  <unicode hex="1D6F"/>
  <anchor x="404" y="0" name="bottom"/>
  <anchor x="404" y="536" name="top"/>
  <anchor x="787" y="536" name="topright"/>
  <outline>
    <contour>
      <point x="-25" y="194" type="curve"/>
      <point x="-16" y="194" type="line"/>
      <point x="-11" y="234"/>
      <point x="11" y="277"/>
      <point x="98" y="277" type="curve" smooth="yes"/>
      <point x="315" y="277"/>
      <point x="524" y="192"/>
      <point x="687" y="192" type="curve" smooth="yes"/>
      <point x="813" y="192"/>
      <point x="835" y="272"/>
      <point x="839" y="350" type="curve"/>
      <point x="830" y="350" type="line"/>
      <point x="825" y="307"/>
      <point x="803" y="267"/>
      <point x="716" y="267" type="curve" smooth="yes"/>
      <point x="516" y="267"/>
      <point x="306" y="351"/>
      <point x="135" y="351" type="curve" smooth="yes"/>
      <point x="-5" y="351"/>
      <point x="-21" y="270"/>
    </contour>
    <component base="m"/>
  </outline>
</glyph>
<glyph name="uni1D7A" format="2">
  <advance width="893"/>
  <unicode hex="1D7A"/>
  <anchor x="209" y="0" name="bottom_1"/>
  <anchor x="603" y="0" name="bottom_2"/>
  <anchor x="169" y="268" name="center_1"/>
  <anchor x="603" y="268" name="center_2"/>
  <anchor x="155" y="659" name="top_1"/>
  <anchor x="603" y="760" name="top_2"/>
  <anchor x="181" y="999" name="topright_1"/>
  <anchor x="823" y="760" name="topright_2"/>
  <outline>
    <contour>
      <point x="65" y="-110" type="line"/>
      <point x="77" y="-110" type="line"/>
      <point x="701" y="760" type="line"/>
      <point x="689" y="760" type="line"/>
    </contour>
    <component base="t"/>
    <component base="h" xOffset="330"/>
  </outline>
</glyph>
<glyph name="uni1D7C" format="2">
  <advance width="325"/>
  <unicode hex="1D7C"/>
  <anchor x="163" y="0" name="bottom"/>
  <anchor x="163" y="536" name="top"/>
  <outline>
    <contour>
      <point x="4" y="290" type="line"/>
      <point x="298" y="290" type="line"/>
      <point x="298" y="300" type="line"/>
      <point x="4" y="300" type="line"/>
    </contour>
    <component base="iotaLatin"/>
  </outline>
</glyph>
<glyph name="uni1D7D" format="2">
  <advance width="529"/>
  <unicode hex="1D7D"/>
  <anchor x="265" y="-229" name="bottom"/>
  <anchor x="265" y="536" name="top"/>
  <anchor x="516" y="536" name="topright"/>
  <outline>
    <contour>
      <point x="-1" y="261" type="line"/>
      <point x="545" y="261" type="line"/>
      <point x="545" y="271" type="line"/>
      <point x="-1" y="271" type="line"/>
    </contour>
    <component base="p"/>
  </outline>
</glyph>
<glyph name="uni1D88" format="2">
  <advance width="529"/>
  <unicode hex="1D88"/>
  <anchor x="265" y="-229" name="bottom"/>
  <anchor x="265" y="536" name="top"/>
  <anchor x="516" y="536" name="topright"/>
  <outline>
    <contour>
      <point x="380" y="-203" type="curve" smooth="yes"/>
      <point x="440" y="-203"/>
      <point x="463" y="-167"/>
      <point x="463" y="-63" type="curve" smooth="yes"/>
      <point x="463" y="109" type="line"/>
      <point x="453" y="109" type="line"/>
      <point x="453" y="-51" type="line" smooth="yes"/>
      <point x="453" y="-109"/>
      <point x="436" y="-129"/>
      <point x="383" y="-129" type="curve" smooth="yes"/>
      <point x="352" y="-129"/>
      <point x="330" y="-120"/>
      <point x="320" y="-104" type="curve"/>
      <point x="312" y="-111"/>
      <point x="307" y="-125"/>
      <point x="307" y="-140" type="curve" smooth="yes"/>
      <point x="307" y="-179"/>
      <point x="333" y="-203"/>
    </contour>
    <component base="p"/>
  </outline>
</glyph>
<glyph name="uni1D95" format="2">
  <advance width="517"/>
  <unicode hex="1D95"/>
  <anchor x="235" y="0" name="bottom"/>
  <anchor x="235" y="536" name="top"/>
  <outline>
    <contour>
      <point x="516" y="-203" type="curve" smooth="yes"/>
      <point x="563" y="-203"/>
      <point x="589" y="-179"/>
      <point x="589" y="-140" type="curve" smooth="yes"/>
      <point x="589" y="-125"/>
      <point x="584" y="-111"/>
      <point x="577" y="-104" type="curve"/>
      <point x="566" y="-120"/>
      <point x="545" y="-129"/>
      <point x="513" y="-129" type="curve" smooth="yes"/>
      <point x="461" y="-129"/>
      <point x="443" y="-109"/>
      <point x="443" y="-51" type="curve" smooth="yes"/>
      <point x="443" y="278" type="line"/>
      <point x="433" y="278" type="line"/>
      <point x="433" y="-63" type="line" smooth="yes"/>
      <point x="433" y="-167"/>
      <point x="457" y="-203"/>
    </contour>
    <component base="uni0259"/>
  </outline>
</glyph>
<glyph name="uni1D97" format="2">
  <advance width="435"/>
  <unicode hex="1D97"/>
  <anchor x="218" y="0" name="bottom"/>
  <anchor x="218" y="536" name="top"/>
  <outline>
    <contour>
      <point x="113" y="-203" type="curve" smooth="yes"/>
      <point x="160" y="-203"/>
      <point x="186" y="-179"/>
      <point x="186" y="-140" type="curve" smooth="yes"/>
      <point x="186" y="-125"/>
      <point x="182" y="-111"/>
      <point x="174" y="-104" type="curve"/>
      <point x="163" y="-120"/>
      <point x="142" y="-129"/>
      <point x="111" y="-129" type="curve" smooth="yes"/>
      <point x="58" y="-129"/>
      <point x="40" y="-109"/>
      <point x="40" y="-51" type="curve" smooth="yes"/>
      <point x="40" y="100" type="line"/>
      <point x="30" y="100" type="line"/>
      <point x="30" y="-63" type="line" smooth="yes"/>
      <point x="30" y="-167"/>
      <point x="54" y="-203"/>
    </contour>
    <component base="uni0254"/>
  </outline>
</glyph>
<glyph name="uni1D99" format="2">
  <advance width="548"/>
  <unicode hex="1D99"/>
  <anchor x="274" y="0" name="bottom"/>
  <anchor x="274" y="536" name="top"/>
  <anchor x="515" y="536" name="topright"/>
  <outline>
    <contour>
      <point x="599" y="-203" type="curve" smooth="yes"/>
      <point x="646" y="-203"/>
      <point x="672" y="-179"/>
      <point x="672" y="-140" type="curve" smooth="yes"/>
      <point x="672" y="-125"/>
      <point x="667" y="-111"/>
      <point x="660" y="-104" type="curve"/>
      <point x="649" y="-120"/>
      <point x="628" y="-129"/>
      <point x="596" y="-129" type="curve" smooth="yes"/>
      <point x="543" y="-129"/>
      <point x="526" y="-109"/>
      <point x="526" y="-51" type="curve" smooth="yes"/>
      <point x="526" y="10" type="line"/>
      <point x="516" y="10" type="line"/>
      <point x="516" y="-63" type="line" smooth="yes"/>
      <point x="516" y="-167"/>
      <point x="539" y="-203"/>
    </contour>
    <component base="u"/>
  </outline>
</glyph>
<glyph name="uni1FC1" format="2">
  <advance width="248"/>
  <unicode hex="1FC1"/>
  <anchor x="126" y="536" name="_top"/>
  <outline>
    <contour>
      <point x="-28" y="755" type="curve"/>
      <point x="-19" y="755" type="line"/>
      <point x="-11" y="789"/>
      <point x="3" y="808"/>
      <point x="32" y="808" type="curve" smooth="yes"/>
      <point x="71" y="808"/>
      <point x="138" y="756"/>
      <point x="196" y="756" type="curve" smooth="yes"/>
      <point x="252" y="756"/>
      <point x="269" y="803"/>
      <point x="276" y="867" type="curve"/>
      <point x="267" y="867" type="line"/>
      <point x="261" y="834"/>
      <point x="246" y="814"/>
      <point x="216" y="814" type="curve" smooth="yes"/>
      <point x="157" y="814"/>
      <point x="111" y="867"/>
      <point x="54" y="867" type="curve" smooth="yes"/>
      <point x="-2" y="867"/>
      <point x="-21" y="819"/>
    </contour>
    <contour>
      <point x="35" y="606" type="curve" smooth="yes"/>
      <point x="58" y="606"/>
      <point x="77" y="621"/>
      <point x="77" y="661" type="curve" smooth="yes"/>
      <point x="77" y="703"/>
      <point x="58" y="718"/>
      <point x="35" y="718" type="curve" smooth="yes"/>
      <point x="14" y="718"/>
      <point x="-4" y="703"/>
      <point x="-4" y="661" type="curve" smooth="yes"/>
      <point x="-4" y="621"/>
      <point x="14" y="606"/>
    </contour>
    <contour>
      <point x="210" y="606" type="curve" smooth="yes"/>
      <point x="231" y="606"/>
      <point x="250" y="621"/>
      <point x="250" y="661" type="curve" smooth="yes"/>
      <point x="250" y="703"/>
      <point x="231" y="718"/>
      <point x="210" y="718" type="curve" smooth="yes"/>
      <point x="187" y="718"/>
      <point x="169" y="703"/>
      <point x="169" y="661" type="curve" smooth="yes"/>
      <point x="169" y="621"/>
      <point x="187" y="606"/>
    </contour>
  </outline>
</glyph>
<glyph name="uni1FEF" format="2">
  <unicode hex="1FEF"/>
  <anchor x="253" y="536" name="_top"/>
  <anchor x="253" y="760" name="top"/>
  <outline>
    <contour>
      <point x="305" y="592" type="curve"/>
      <point x="316" y="592" type="line"/>
      <point x="316" y="606" type="line"/>
      <point x="303" y="651"/>
      <point x="289" y="713"/>
      <point x="283" y="760" type="curve"/>
      <point x="193" y="760" type="line"/>
      <point x="193" y="749" type="line"/>
      <point x="219" y="702"/>
      <point x="261" y="640"/>
    </contour>
  </outline>
</glyph>
<glyph name="uni1FFD" format="2">
  <advance width="515"/>
  <unicode hex="1FFD"/>
  <anchor x="250" y="536" name="_top"/>
  <anchor x="250" y="760" name="top"/>
  <outline>
    <contour>
      <point x="188" y="592" type="line"/>
      <point x="199" y="592" type="line"/>
      <point x="242" y="638"/>
      <point x="286" y="705"/>
      <point x="310" y="749" type="curve"/>
      <point x="310" y="760" type="line"/>
      <point x="220" y="760" type="line"/>
      <point x="215" y="713"/>
      <point x="202" y="652"/>
      <point x="188" y="606" type="curve"/>
    </contour>
  </outline>
</glyph>
<glyph name="uni2012" format="2">
  <advance width="456"/>
  <unicode hex="2012"/>
  <outline>
    <contour>
      <point x="40" y="354" type="line"/>
      <point x="416" y="354" type="line"/>
      <point x="416" y="374" type="line"/>
      <point x="40" y="374" type="line"/>
    </contour>
  </outline>
</glyph>
<glyph name="plussuperior" format="2">
  <advance width="327"/>
  <unicode hex="207A"/>
  <outline>
    <contour>
      <point x="153" y="329" type="line"/>
      <point x="173" y="329" type="line"/>
      <point x="173" y="472" type="line"/>
      <point x="280" y="472" type="line"/>
      <point x="280" y="492" type="line"/>
      <point x="173" y="492" type="line"/>
      <point x="173" y="634" type="line"/>
      <point x="153" y="634" type="line"/>
      <point x="153" y="492" type="line"/>
      <point x="46" y="492" type="line"/>
      <point x="46" y="472" type="line"/>
      <point x="153" y="472" type="line"/>
    </contour>
  </outline>
</glyph>
<glyph name="equalsuperior" format="2">
  <advance width="327"/>
  <unicode hex="207C"/>
  <outline>
    <contour>
      <point x="22" y="547" type="line"/>
      <point x="305" y="547" type="line"/>
      <point x="305" y="567" type="line"/>
      <point x="22" y="567" type="line"/>
    </contour>
    <contour>
      <point x="22" y="396" type="line"/>
      <point x="305" y="396" type="line"/>
      <point x="305" y="416" type="line"/>
      <point x="22" y="416" type="line"/>
    </contour>
  </outline>
</glyph>
<glyph name="parenleftsuperior" format="2">
  <advance width="204"/>
  <unicode hex="207D"/>
  <outline>
    <contour>
      <point x="191" y="196" type="curve"/>
      <point x="191" y="206" type="line"/>
      <point x="118" y="269"/>
      <point x="99" y="345"/>
      <point x="99" y="491" type="curve" smooth="yes"/>
      <point x="99" y="634"/>
      <point x="118" y="714"/>
      <point x="191" y="777" type="curve"/>
      <point x="191" y="788" type="line"/>
      <point x="82" y="735"/>
      <point x="21" y="664"/>
      <point x="21" y="491" type="curve" smooth="yes"/>
      <point x="21" y="313"/>
      <point x="76" y="248"/>
    </contour>
  </outline>
</glyph>
<glyph name="parenrightsuperior" format="2">
  <advance width="204"/>
  <unicode hex="207E"/>
  <outline>
    <contour>
      <point x="16" y="196" type="line"/>
      <point x="131" y="248"/>
      <point x="186" y="313"/>
      <point x="186" y="491" type="curve" smooth="yes"/>
      <point x="186" y="664"/>
      <point x="125" y="735"/>
      <point x="16" y="788" type="curve"/>
      <point x="16" y="777" type="line"/>
      <point x="89" y="714"/>
      <point x="108" y="634"/>
      <point x="108" y="491" type="curve" smooth="yes"/>
      <point x="108" y="345"/>
      <point x="89" y="269"/>
      <point x="16" y="206" type="curve"/>
    </contour>
  </outline>
</glyph>
<glyph name="uni20A9" format="2">
  <advance width="870"/>
  <unicode hex="20A9"/>
  <outline>
    <contour>
      <point x="222" y="0" type="line"/>
      <point x="312" y="0" type="line"/>
      <point x="383" y="317" type="line"/>
      <point x="488" y="317" type="line"/>
      <point x="572" y="0" type="line"/>
      <point x="639" y="0" type="line"/>
      <point x="707" y="317" type="line"/>
      <point x="857" y="317" type="line"/>
      <point x="857" y="327" type="line"/>
      <point x="709" y="327" type="line"/>
      <point x="732" y="433" type="line"/>
      <point x="857" y="433" type="line"/>
      <point x="857" y="443" type="line"/>
      <point x="734" y="443" type="line"/>
      <point x="775" y="633" type="line" smooth="yes"/>
      <point x="788" y="694"/>
      <point x="803" y="704"/>
      <point x="838" y="704" type="curve" smooth="yes"/>
      <point x="873" y="704" type="line"/>
      <point x="873" y="714" type="line"/>
      <point x="670" y="714" type="line"/>
      <point x="670" y="704" type="line"/>
      <point x="714" y="704" type="line" smooth="yes"/>
      <point x="753" y="704"/>
      <point x="766" y="693"/>
      <point x="766" y="665" type="curve" smooth="yes"/>
      <point x="766" y="652"/>
      <point x="764" y="631"/>
      <point x="758" y="604" type="curve" smooth="yes"/>
      <point x="723" y="443" type="line"/>
      <point x="586" y="443" type="line"/>
      <point x="512" y="709" type="line"/>
      <point x="460" y="709" type="line"/>
      <point x="401" y="443" type="line"/>
      <point x="258" y="443" type="line"/>
      <point x="226" y="598" type="line" smooth="yes"/>
      <point x="221" y="622"/>
      <point x="217" y="652"/>
      <point x="217" y="663" type="curve" smooth="yes"/>
      <point x="217" y="691"/>
      <point x="230" y="704"/>
      <point x="267" y="704" type="curve" smooth="yes"/>
      <point x="294" y="704" type="line"/>
      <point x="294" y="714" type="line"/>
      <point x="0" y="714" type="line"/>
      <point x="0" y="704" type="line"/>
      <point x="25" y="704" type="line" smooth="yes"/>
      <point x="52" y="704"/>
      <point x="67" y="695"/>
      <point x="77" y="652" type="curve" smooth="yes"/>
      <point x="124" y="443" type="line"/>
      <point x="13" y="443" type="line"/>
      <point x="13" y="433" type="line"/>
      <point x="126" y="433" type="line"/>
      <point x="149" y="327" type="line"/>
      <point x="13" y="327" type="line"/>
      <point x="13" y="317" type="line"/>
      <point x="152" y="317" type="line"/>
    </contour>
    <contour>
      <point x="324" y="101" type="line"/>
      <point x="284" y="317" type="line"/>
      <point x="372" y="317" type="line"/>
    </contour>
    <contour>
      <point x="282" y="327" type="line"/>
      <point x="260" y="433" type="line"/>
      <point x="398" y="433" type="line"/>
      <point x="375" y="327" type="line"/>
    </contour>
    <contour>
      <point x="662" y="154" type="line"/>
      <point x="621" y="317" type="line"/>
      <point x="696" y="317" type="line"/>
    </contour>
    <contour>
      <point x="385" y="327" type="line"/>
      <point x="408" y="433" type="line"/>
      <point x="458" y="433" type="line"/>
      <point x="486" y="327" type="line"/>
    </contour>
    <contour>
      <point x="411" y="443" type="line"/>
      <point x="432" y="538" type="line"/>
      <point x="456" y="443" type="line"/>
    </contour>
    <contour>
      <point x="618" y="327" type="line"/>
      <point x="589" y="433" type="line"/>
      <point x="721" y="433" type="line"/>
      <point x="698" y="327" type="line"/>
    </contour>
  </outline>
</glyph>
<glyph name="Euro" format="2">
  <advance width="456"/>
  <unicode hex="20AC"/>
  <outline>
    <contour>
      <point x="293" y="-10" type="curve" smooth="yes"/>
      <point x="393" y="-10"/>
      <point x="440" y="43"/>
      <point x="440" y="88" type="curve" smooth="yes"/>
      <point x="440" y="117"/>
      <point x="423" y="138"/>
      <point x="394" y="142" type="curve"/>
      <point x="384" y="40"/>
      <point x="360" y="1"/>
      <point x="303" y="1" type="curve" smooth="yes"/>
      <point x="226" y="1"/>
      <point x="193" y="86"/>
      <point x="188" y="289" type="curve"/>
      <point x="309" y="289" type="line"/>
      <point x="309" y="299" type="line"/>
      <point x="188" y="299" type="line"/>
      <point x="186" y="320"/>
      <point x="186" y="337"/>
      <point x="186" y="359" type="curve" smooth="yes"/>
      <point x="186" y="377"/>
      <point x="186" y="393"/>
      <point x="187" y="410" type="curve"/>
      <point x="342" y="410" type="line"/>
      <point x="342" y="420" type="line"/>
      <point x="187" y="420" type="line"/>
      <point x="191" y="624"/>
      <point x="217" y="712"/>
      <point x="280" y="712" type="curve" smooth="yes"/>
      <point x="327" y="712"/>
      <point x="341" y="666"/>
      <point x="341" y="547" type="curve"/>
      <point x="409" y="547"/>
      <point x="442" y="570"/>
      <point x="442" y="615" type="curve" smooth="yes"/>
      <point x="442" y="673"/>
      <point x="386" y="722"/>
      <point x="291" y="722" type="curve" smooth="yes"/>
      <point x="151" y="722"/>
      <point x="78" y="620"/>
      <point x="65" y="420" type="curve"/>
      <point x="20" y="420" type="line"/>
      <point x="20" y="410" type="line"/>
      <point x="65" y="410" type="line"/>
      <point x="64" y="390"/>
      <point x="63" y="373"/>
      <point x="63" y="352" type="curve" smooth="yes"/>
      <point x="63" y="333"/>
      <point x="63" y="317"/>
      <point x="64" y="299" type="curve"/>
      <point x="20" y="299" type="line"/>
      <point x="20" y="289" type="line"/>
      <point x="65" y="289" type="line"/>
      <point x="76" y="90"/>
      <point x="149" y="-10"/>
    </contour>
  </outline>
</glyph>
<glyph name="uni20AD" format="2">
  <advance width="615"/>
  <unicode hex="20AD"/>
  <anchor x="328" y="0" name="bottom"/>
  <anchor x="337" y="714" name="top"/>
  <anchor x="595" y="714" name="topright"/>
  <outline>
    <contour>
      <point x="13" y="374" type="line"/>
      <point x="545" y="374" type="line"/>
      <point x="545" y="384" type="line"/>
      <point x="13" y="384" type="line"/>
    </contour>
    <component base="K"/>
  </outline>
</glyph>
<glyph name="uni20AE" format="2">
  <advance width="536"/>
  <unicode hex="20AE"/>
  <anchor x="268" y="0" name="bottom"/>
  <anchor x="268" y="357" name="center"/>
  <anchor x="268" y="714" name="top"/>
  <anchor x="555" y="714" name="topright"/>
  <outline>
    <contour>
      <point x="94" y="303" type="line"/>
      <point x="439" y="469" type="line"/>
      <point x="435" y="478" type="line"/>
      <point x="90" y="312" type="line"/>
    </contour>
    <contour>
      <point x="94" y="146" type="line"/>
      <point x="439" y="312" type="line"/>
      <point x="435" y="321" type="line"/>
      <point x="90" y="155" type="line"/>
    </contour>
    <component base="T"/>
  </outline>
</glyph>
<glyph name="uni20B2" format="2">
  <advance width="632"/>
  <unicode hex="20B2"/>
  <anchor x="353" y="-10" name="bottom"/>
  <anchor x="346" y="714" name="top"/>
  <anchor x="612" y="714" name="topright"/>
  <outline>
    <contour>
      <point x="326" y="-79" type="line"/>
      <point x="336" y="-79" type="line"/>
      <point x="336" y="780" type="line"/>
      <point x="326" y="780" type="line"/>
    </contour>
    <component base="G"/>
  </outline>
</glyph>
<glyph name="uni20B4" format="2">
  <advance width="474"/>
  <unicode hex="20B4"/>
  <anchor x="235" y="0" name="bottom"/>
  <anchor x="235" y="714" name="top"/>
  <anchor x="18" y="714" name="topright"/>
  <outline>
    <contour>
      <point x="246" y="-10" type="curve" smooth="yes"/>
      <point x="407" y="-10"/>
      <point x="445" y="69"/>
      <point x="445" y="129" type="curve" smooth="yes"/>
      <point x="445" y="189"/>
      <point x="403" y="214"/>
      <point x="356" y="214" type="curve"/>
      <point x="356" y="74"/>
      <point x="318" y="1"/>
      <point x="228" y="1" type="curve" smooth="yes"/>
      <point x="158" y="1"/>
      <point x="119" y="44"/>
      <point x="119" y="128" type="curve" smooth="yes"/>
      <point x="119" y="234"/>
      <point x="185" y="267"/>
      <point x="276" y="315" type="curve" smooth="yes"/>
      <point x="388" y="371"/>
      <point x="428" y="437"/>
      <point x="428" y="526" type="curve" smooth="yes"/>
      <point x="428" y="651"/>
      <point x="341" y="724"/>
      <point x="224" y="724" type="curve" smooth="yes"/>
      <point x="102" y="724"/>
      <point x="48" y="662"/>
      <point x="48" y="601" type="curve" smooth="yes"/>
      <point x="48" y="561"/>
      <point x="74" y="532"/>
      <point x="145" y="532" type="curve"/>
      <point x="145" y="657"/>
      <point x="175" y="714"/>
      <point x="238" y="714" type="curve" smooth="yes"/>
      <point x="288" y="714"/>
      <point x="337" y="677"/>
      <point x="337" y="593" type="curve" smooth="yes"/>
      <point x="337" y="510"/>
      <point x="295" y="471"/>
      <point x="183" y="416" type="curve" smooth="yes"/>
      <point x="68" y="359"/>
      <point x="26" y="299"/>
      <point x="26" y="204" type="curve" smooth="yes"/>
      <point x="26" y="72"/>
      <point x="111" y="-10"/>
    </contour>
    <contour>
      <point x="-8" y="301" type="line"/>
      <point x="475" y="301" type="line"/>
      <point x="475" y="311" type="line"/>
      <point x="-8" y="311" type="line"/>
    </contour>
    <contour>
      <point x="-8" y="431" type="line"/>
      <point x="475" y="431" type="line"/>
      <point x="475" y="441" type="line"/>
      <point x="-8" y="441" type="line"/>
    </contour>
  </outline>
</glyph>
<glyph name="response" format="2">
  <advance width="586"/>
  <unicode hex="211F"/>
  <anchor x="293" y="0" name="bottom"/>
  <anchor x="293" y="714" name="top"/>
  <anchor x="566" y="714" name="topright"/>
  <outline>
    <contour>
      <point x="107" y="-124" type="line"/>
      <point x="117" y="-124" type="line"/>
      <point x="431" y="806" type="line"/>
      <point x="256" y="882" type="line"/>
      <point x="253" y="873" type="line"/>
      <point x="419" y="801" type="line"/>
    </contour>
    <component base="R"/>
  </outline>
</glyph>
<glyph name="uni2C65" format="2">
  <advance width="493"/>
  <unicode hex="2C65"/>
  <anchor x="247" y="-192" name="bottom"/>
  <anchor x="247" y="714" name="top"/>
  <anchor x="473" y="536" name="topright"/>
  <outline>
    <contour>
      <point x="121" y="-192" type="line"/>
      <point x="131" y="-192" type="line"/>
      <point x="334" y="714" type="line"/>
      <point x="324" y="714" type="line"/>
    </contour>
    <component base="a"/>
  </outline>
</glyph>
<glyph name="uni2C66" format="2">
  <advance width="336"/>
  <unicode hex="2C66"/>
  <anchor x="168" y="-192" name="bottom"/>
  <anchor x="168" y="714" name="top"/>
  <anchor x="169" y="268" name="center"/>
  <anchor x="331" y="659" name="topright"/>
  <outline>
    <contour>
      <point x="90" y="-192" type="line"/>
      <point x="100" y="-192" type="line"/>
      <point x="302" y="714" type="line"/>
      <point x="292" y="714" type="line"/>
    </contour>
    <component base="t"/>
  </outline>
</glyph>
<glyph name="upwardsancora" format="2">
  <advance width="611"/>
  <unicode hex="2E15"/>
  <outline>
    <contour>
      <point x="93" y="71" type="line"/>
      <point x="458" y="476" type="line"/>
      <point x="495" y="433"/>
      <point x="513" y="393"/>
      <point x="513" y="348" type="curve" smooth="yes"/>
      <point x="513" y="324"/>
      <point x="508" y="299"/>
      <point x="497" y="272" type="curve"/>
      <point x="511" y="257" type="line"/>
      <point x="525" y="290"/>
      <point x="532" y="321"/>
      <point x="532" y="350" type="curve" smooth="yes"/>
      <point x="532" y="399"/>
      <point x="511" y="446"/>
      <point x="469" y="492" type="curve" smooth="yes"/>
      <point x="423" y="542"/>
      <point x="378" y="566"/>
      <point x="327" y="566" type="curve" smooth="yes"/>
      <point x="303" y="566"/>
      <point x="276" y="561"/>
      <point x="248" y="549" type="curve"/>
      <point x="260" y="535" type="line"/>
      <point x="283" y="544"/>
      <point x="305" y="549"/>
      <point x="325" y="549" type="curve" smooth="yes"/>
      <point x="367" y="549"/>
      <point x="405" y="530"/>
      <point x="445" y="490" type="curve"/>
      <point x="79" y="85" type="line"/>
    </contour>
  </outline>
</glyph>
<glyph name="uniA670" format="2">
  <unicode hex="A670"/>
  <outline>
    <contour>
      <point x="183" y="451" type="line"/>
      <point x="230" y="509" type="line"/>
      <point x="277" y="451" type="line"/>
      <point x="309" y="489" type="line"/>
      <point x="261" y="547" type="line"/>
      <point x="309" y="606" type="line"/>
      <point x="278" y="643" type="line"/>
      <point x="230" y="585" type="line"/>
      <point x="183" y="643" type="line"/>
      <point x="151" y="606" type="line"/>
      <point x="200" y="547" type="line"/>
      <point x="151" y="489" type="line"/>
    </contour>
    <contour>
      <point x="-278" y="-105" type="line"/>
      <point x="-230" y="-47" type="line"/>
      <point x="-183" y="-105" type="line"/>
      <point x="-152" y="-67" type="line"/>
      <point x="-199" y="-9" type="line"/>
      <point x="-152" y="50" type="line"/>
      <point x="-183" y="87" type="line"/>
      <point x="-230" y="29" type="line"/>
      <point x="-278" y="87" type="line"/>
      <point x="-309" y="50" type="line"/>
      <point x="-261" y="-9" type="line"/>
      <point x="-309" y="-67" type="line"/>
    </contour>
    <contour>
      <point x="-262" y="174" type="line"/>
      <point x="-232" y="212" type="line"/>
      <point x="-278" y="270" type="line"/>
      <point x="-232" y="328" type="line"/>
      <point x="-262" y="366" type="line"/>
      <point x="-310" y="308" type="line"/>
      <point x="-358" y="366" type="line"/>
      <point x="-388" y="329" type="line"/>
      <point x="-341" y="270" type="line"/>
      <point x="-388" y="213" type="line"/>
      <point x="-358" y="175" type="line"/>
      <point x="-310" y="234" type="line"/>
    </contour>
    <contour>
      <point x="-48" y="-203" type="line"/>
      <point x="0" y="-145" type="line"/>
      <point x="47" y="-203" type="line"/>
      <point x="79" y="-165" type="line"/>
      <point x="31" y="-107" type="line"/>
      <point x="79" y="-48" type="line"/>
      <point x="48" y="-11" type="line"/>
      <point x="0" y="-69" type="line"/>
      <point x="-48" y="-11" type="line"/>
      <point x="-79" y="-48" type="line"/>
      <point x="-31" y="-107" type="line"/>
      <point x="-79" y="-165" type="line"/>
    </contour>
    <contour>
      <point x="-278" y="451" type="line"/>
      <point x="-230" y="509" type="line"/>
      <point x="-183" y="451" type="line"/>
      <point x="-152" y="489" type="line"/>
      <point x="-199" y="547" type="line"/>
      <point x="-152" y="606" type="line"/>
      <point x="-183" y="643" type="line"/>
      <point x="-230" y="585" type="line"/>
      <point x="-278" y="643" type="line"/>
      <point x="-309" y="606" type="line"/>
      <point x="-261" y="547" type="line"/>
      <point x="-309" y="489" type="line"/>
    </contour>
    <contour>
      <point x="183" y="-105" type="line"/>
      <point x="230" y="-47" type="line"/>
      <point x="277" y="-105" type="line"/>
      <point x="309" y="-67" type="line"/>
      <point x="261" y="-9" type="line"/>
      <point x="309" y="50" type="line"/>
      <point x="278" y="87" type="line"/>
      <point x="230" y="29" type="line"/>
      <point x="183" y="87" type="line"/>
      <point x="151" y="50" type="line"/>
      <point x="200" y="-9" type="line"/>
      <point x="151" y="-67" type="line"/>
    </contour>
    <contour>
      <point x="260" y="174" type="line"/>
      <point x="309" y="233" type="line"/>
      <point x="356" y="174" type="line"/>
      <point x="387" y="212" type="line"/>
      <point x="340" y="270" type="line"/>
      <point x="387" y="328" type="line"/>
      <point x="356" y="366" type="line"/>
      <point x="309" y="308" type="line"/>
      <point x="260" y="366" type="line"/>
      <point x="230" y="329" type="line"/>
      <point x="277" y="270" type="line"/>
      <point x="230" y="212" type="line"/>
    </contour>
    <contour>
      <point x="-48" y="552" type="line"/>
      <point x="0" y="610" type="line"/>
      <point x="47" y="552" type="line"/>
      <point x="79" y="590" type="line"/>
      <point x="31" y="648" type="line"/>
      <point x="79" y="707" type="line"/>
      <point x="48" y="744" type="line"/>
      <point x="0" y="686" type="line"/>
      <point x="-48" y="744" type="line"/>
      <point x="-79" y="707" type="line"/>
      <point x="-31" y="648" type="line"/>
      <point x="-79" y="590" type="line"/>
    </contour>
  </outline>
</glyph>
<glyph name="uniA672" format="2">
  <unicode hex="A672"/>
  <outline>
    <contour>
      <point x="-20" y="497" type="line"/>
      <point x="20" y="497" type="line"/>
      <point x="20" y="594" type="line"/>
      <point x="108" y="594" type="line"/>
      <point x="108" y="635" type="line"/>
      <point x="20" y="635" type="line"/>
      <point x="20" y="729" type="line"/>
      <point x="-20" y="729" type="line"/>
      <point x="-20" y="635" type="line"/>
      <point x="-107" y="635" type="line"/>
      <point x="-107" y="594" type="line"/>
      <point x="-20" y="594" type="line"/>
    </contour>
    <contour>
      <point x="-140" y="-197" type="line"/>
      <point x="-100" y="-197" type="line"/>
      <point x="-100" y="36" type="line"/>
      <point x="-140" y="36" type="line"/>
    </contour>
    <contour>
      <point x="-348" y="57" type="line"/>
      <point x="-149" y="57" type="line"/>
      <point x="-149" y="98" type="line"/>
      <point x="-348" y="98" type="line"/>
    </contour>
    <contour>
      <point x="-20" y="-197" type="line"/>
      <point x="20" y="-197" type="line"/>
      <point x="20" y="36" type="line"/>
      <point x="-20" y="36" type="line"/>
    </contour>
    <contour>
      <point x="-348" y="252" type="line"/>
      <point x="-149" y="252" type="line"/>
      <point x="-149" y="293" type="line"/>
      <point x="-348" y="293" type="line"/>
    </contour>
    <contour>
      <point x="100" y="-197" type="line"/>
      <point x="141" y="-197" type="line"/>
      <point x="141" y="36" type="line"/>
      <point x="100" y="36" type="line"/>
    </contour>
    <contour>
      <point x="-348" y="447" type="line"/>
      <point x="-149" y="447" type="line"/>
      <point x="-149" y="488" type="line"/>
      <point x="-348" y="488" type="line"/>
    </contour>
    <contour>
      <point x="148" y="57" type="line"/>
      <point x="348" y="57" type="line"/>
      <point x="348" y="98" type="line"/>
      <point x="148" y="98" type="line"/>
    </contour>
    <contour>
      <point x="148" y="252" type="line"/>
      <point x="348" y="252" type="line"/>
      <point x="348" y="293" type="line"/>
      <point x="148" y="293" type="line"/>
    </contour>
    <contour>
      <point x="148" y="447" type="line"/>
      <point x="348" y="447" type="line"/>
      <point x="348" y="488" type="line"/>
      <point x="148" y="488" type="line"/>
    </contour>
  </outline>
</glyph>
<glyph name="uniA71A" format="2">
  <advance width="278"/>
  <unicode hex="A71A"/>
  <outline>
    <contour>
      <point x="40" y="623" type="line"/>
      <point x="238" y="623" type="line"/>
      <point x="238" y="758" type="line"/>
      <point x="218" y="758" type="line"/>
      <point x="218" y="643" type="line"/>
      <point x="40" y="643" type="line"/>
    </contour>
  </outline>
</glyph>
<glyph name="uniA740" format="2">
  <advance width="615"/>
  <unicode hex="A740"/>
  <anchor x="308" y="714" name="top"/>
  <anchor x="308" y="0" name="bottom"/>
  <anchor x="595" y="714" name="topright"/>
  <outline>
    <contour>
      <point x="22" y="560" type="line"/>
      <point x="309" y="560" type="line"/>
      <point x="309" y="570" type="line"/>
      <point x="22" y="570" type="line"/>
    </contour>
    <component base="K"/>
  </outline>
</glyph>
<glyph name="uniA742" format="2">
  <advance width="615"/>
  <unicode hex="A742"/>
  <anchor x="328" y="0" name="bottom"/>
  <anchor x="337" y="714" name="top"/>
  <anchor x="595" y="714" name="topright"/>
  <outline>
    <contour>
      <point x="288" y="129" type="line"/>
      <point x="505" y="314" type="line"/>
      <point x="498" y="322" type="line"/>
      <point x="282" y="137" type="line"/>
    </contour>
    <component base="K"/>
  </outline>
</glyph>
<glyph name="uniA748" format="2">
  <advance width="653"/>
  <unicode hex="A748"/>
  <anchor x="268" y="0" name="bottom"/>
  <anchor x="268" y="357" name="center"/>
  <anchor x="268" y="714" name="top"/>
  <anchor x="515" y="714" name="topright"/>
  <outline>
    <contour>
      <point x="15" y="557" type="line"/>
      <point x="315" y="557" type="line"/>
      <point x="315" y="567" type="line"/>
      <point x="15" y="567" type="line"/>
    </contour>
    <component base="L"/>
  </outline>
</glyph>
<glyph name="uniA749" format="2">
  <advance width="291"/>
  <unicode hex="A749"/>
  <anchor x="146" y="0" name="bottom"/>
  <anchor x="146" y="268" name="center"/>
  <anchor x="146" y="760" name="top"/>
  <anchor x="268" y="760" name="topright"/>
  <outline>
    <contour>
      <point x="-3" y="606" type="line"/>
      <point x="288" y="606" type="line"/>
      <point x="288" y="616" type="line"/>
      <point x="-3" y="616" type="line"/>
    </contour>
    <component base="l"/>
  </outline>
</glyph>
<glyph name="uniA750" format="2">
  <advance width="523"/>
  <unicode hex="A750"/>
  <anchor x="164" y="0" name="bottom"/>
  <anchor x="262" y="714" name="top"/>
  <anchor x="542" y="714" name="topright"/>
  <outline>
    <contour>
      <point x="22" y="166" type="line"/>
      <point x="323" y="166" type="line"/>
      <point x="323" y="176" type="line"/>
      <point x="22" y="176" type="line"/>
    </contour>
    <component base="P"/>
  </outline>
</glyph>
<glyph name="uniA756" format="2">
  <advance width="646"/>
  <unicode hex="A756"/>
  <anchor x="323" y="-233" name="bottom"/>
  <anchor x="323" y="714" name="top"/>
  <anchor x="626" y="714" name="topright"/>
  <outline>
    <contour>
      <point x="226" y="-181" type="line"/>
      <point x="511" y="-61" type="line"/>
      <point x="507" y="-52" type="line"/>
      <point x="222" y="-172" type="line"/>
    </contour>
    <component base="Q"/>
  </outline>
</glyph>
<glyph name="uniA757" format="2">
  <advance width="531"/>
  <unicode hex="A757"/>
  <anchor x="266" y="-229" name="bottom"/>
  <anchor x="266" y="536" name="top"/>
  <anchor x="526" y="536" name="topright"/>
  <outline>
    <contour>
      <point x="218" y="-91" type="line"/>
      <point x="519" y="-91" type="line"/>
      <point x="519" y="-81" type="line"/>
      <point x="218" y="-81" type="line"/>
    </contour>
    <component base="q"/>
  </outline>
</glyph>
<glyph name="uniA765" format="2">
  <advance width="529"/>
  <unicode hex="A765"/>
  <anchor x="265" y="-240" name="bottom"/>
  <anchor x="265" y="760" name="top"/>
  <outline>
    <contour>
      <point x="10" y="490" type="line"/>
      <point x="366" y="719" type="line"/>
      <point x="366" y="729" type="line"/>
      <point x="10" y="500" type="line"/>
    </contour>
    <component base="thorn"/>
  </outline>
</glyph>
<glyph name="uniA793" format="2">
  <advance width="479"/>
  <unicode hex="A793"/>
  <anchor x="279" y="0" name="bottom"/>
  <anchor x="279" y="536" name="top"/>
  <anchor x="456" y="536" name="topright"/>
  <outline>
    <contour>
      <point x="14" y="271" type="line"/>
      <point x="299" y="271" type="line"/>
      <point x="299" y="281" type="line"/>
      <point x="14" y="281" type="line"/>
    </contour>
    <component base="c" xOffset="43"/>
  </outline>
</glyph>
<glyph name="uniA7A0" format="2">
  <advance width="734"/>
  <unicode hex="A7A0"/>
  <anchor x="346" y="0" name="bottom"/>
  <anchor x="346" y="714" name="top"/>
  <anchor x="612" y="714" name="topright"/>
  <outline>
    <contour>
      <point x="0" y="266" type="line"/>
      <point x="622" y="420" type="line"/>
      <point x="622" y="430" type="line"/>
      <point x="0" y="276" type="line"/>
    </contour>
    <component base="G"/>
  </outline>
</glyph>
<glyph name="uniA7A2" format="2">
  <advance width="713"/>
  <unicode hex="A7A2"/>
  <anchor x="308" y="0" name="bottom"/>
  <anchor x="308" y="714" name="top"/>
  <anchor x="595" y="714" name="topright"/>
  <outline>
    <contour>
      <point x="26" y="138" type="line"/>
      <point x="574" y="270" type="line"/>
      <point x="574" y="280" type="line"/>
      <point x="26" y="148" type="line"/>
    </contour>
    <component base="K"/>
  </outline>
</glyph>
<glyph name="uniA7A5" format="2">
  <advance width="546"/>
  <unicode hex="A7A5"/>
  <anchor x="273" y="0" name="bottom"/>
  <anchor x="273" y="536" name="top"/>
  <anchor x="526" y="536" name="topright"/>
  <outline>
    <contour>
      <point x="16" y="204" type="line"/>
      <point x="541" y="318" type="line"/>
      <point x="541" y="328" type="line"/>
      <point x="16" y="213" type="line"/>
    </contour>
    <component base="n"/>
  </outline>
</glyph>
<glyph name="uniA7A7" format="2">
  <advance width="431"/>
  <unicode hex="A7A7"/>
  <anchor x="153" y="0" name="bottom"/>
  <anchor x="223" y="536" name="top"/>
  <anchor x="456" y="536" name="topright"/>
  <outline>
    <contour>
      <point x="10" y="197" type="line"/>
      <point x="313" y="263" type="line"/>
      <point x="313" y="273" type="line"/>
      <point x="10" y="207" type="line"/>
    </contour>
    <component base="r"/>
  </outline>
</glyph>
<glyph name="uniA7A9" format="2">
  <advance width="393"/>
  <unicode hex="A7A9"/>
  <anchor x="197" y="0" name="bottom"/>
  <anchor x="197" y="536" name="top"/>
  <anchor x="371" y="536" name="topright"/>
  <outline>
    <contour>
      <point x="14" y="227" type="line"/>
      <point x="379" y="324" type="line"/>
      <point x="379" y="334" type="line"/>
      <point x="14" y="237" type="line"/>
    </contour>
    <component base="s"/>
  </outline>
</glyph>
<glyph name="uniA7AE" format="2">
  <advance width="494"/>
  <unicode hex="A7AE"/>
  <outline>
    <contour>
      <point x="30" y="0" type="line"/>
      <point x="464" y="0" type="line"/>
      <point x="470" y="179" type="line"/>
      <point x="460" y="179" type="line"/>
      <point x="457" y="133" type="line" smooth="yes"/>
      <point x="451" y="41"/>
      <point x="425" y="10"/>
      <point x="350" y="10" type="curve" smooth="yes"/>
      <point x="313" y="10" type="line"/>
      <point x="313" y="704" type="line"/>
      <point x="348" y="704" type="line" smooth="yes"/>
      <point x="421" y="704"/>
      <point x="452" y="673"/>
      <point x="457" y="577" type="curve" smooth="yes"/>
      <point x="459" y="535" type="line"/>
      <point x="469" y="535" type="line"/>
      <point x="464" y="714" type="line"/>
      <point x="30" y="714" type="line"/>
      <point x="25" y="535" type="line"/>
      <point x="35" y="535" type="line"/>
      <point x="37" y="577" type="line" smooth="yes"/>
      <point x="42" y="673"/>
      <point x="73" y="704"/>
      <point x="146" y="704" type="curve" smooth="yes"/>
      <point x="181" y="704" type="line"/>
      <point x="181" y="10" type="line"/>
      <point x="145" y="10" type="line" smooth="yes"/>
      <point x="68" y="10"/>
      <point x="43" y="41"/>
      <point x="37" y="133" type="curve" smooth="yes"/>
      <point x="34" y="179" type="line"/>
      <point x="24" y="179" type="line"/>
    </contour>
  </outline>
</glyph>
<glyph name="uniA7B9" format="2">
  <advance width="548"/>
  <unicode hex="A7B9"/>
  <anchor x="274" y="0" name="bottom"/>
  <anchor x="274" y="536" name="top"/>
  <anchor x="515" y="536" name="topright"/>
  <outline>
    <contour>
      <point x="40" y="-11" type="line"/>
      <point x="50" y="-11" type="line"/>
      <point x="481" y="550" type="line"/>
      <point x="471" y="550" type="line"/>
    </contour>
    <component base="u"/>
  </outline>
</glyph>
<glyph name="uniA7C5" format="2">
  <advance width="474"/>
  <unicode hex="A7C5"/>
  <anchor x="232" y="-10" name="bottom"/>
  <anchor x="237" y="714" name="top"/>
  <anchor x="454" y="714" name="topright"/>
  <outline>
    <contour>
      <point x="27" y="-7" type="line"/>
      <point x="27" y="-162"/>
      <point x="82" y="-216"/>
      <point x="172" y="-216" type="curve" smooth="yes"/>
      <point x="243" y="-216"/>
      <point x="281" y="-188"/>
      <point x="281" y="-148" type="curve" smooth="yes"/>
      <point x="281" y="-121"/>
      <point x="265" y="-90"/>
      <point x="225" y="-90" type="curve" smooth="yes"/>
      <point x="155" y="-90"/>
      <point x="181" y="-171"/>
      <point x="126" y="-171" type="curve" smooth="yes"/>
      <point x="71" y="-171"/>
      <point x="35" y="-129"/>
      <point x="35" y="-7" type="curve" smooth="yes"/>
      <point x="35" y="125" type="line"/>
      <point x="27" y="130" type="line"/>
    </contour>
    <component base="S"/>
  </outline>
</glyph>
<glyph name="uniA7C6" format="2">
  <advance width="549"/>
  <unicode hex="A7C6"/>
  <anchor x="270" y="0" name="bottom"/>
  <anchor x="270" y="714" name="top"/>
  <anchor x="524.007" y="714.0" name="topright"/>
  <outline>
    <contour>
      <point x="507" y="-7" type="curve" smooth="yes"/>
      <point x="507" y="40" type="line"/>
      <point x="499" y="35" type="line"/>
      <point x="499" y="-7" type="line" smooth="yes"/>
      <point x="499" y="-129"/>
      <point x="463" y="-171"/>
      <point x="408" y="-171" type="curve" smooth="yes"/>
      <point x="353" y="-171"/>
      <point x="379" y="-90"/>
      <point x="309" y="-90" type="curve" smooth="yes"/>
      <point x="269" y="-90"/>
      <point x="253" y="-121"/>
      <point x="253" y="-150" type="curve" smooth="yes"/>
      <point x="253" y="-188"/>
      <point x="291" y="-216"/>
      <point x="362" y="-216" type="curve" smooth="yes"/>
      <point x="452" y="-216"/>
      <point x="507" y="-162"/>
    </contour>
    <component base="Z"/>
  </outline>
</glyph>
<glyph name="uniA7C8" format="2">
  <advance width="532"/>
  <unicode hex="A7C8"/>
  <anchor x="267" y="0" name="bottom"/>
  <anchor x="267" y="268" name="center"/>
  <anchor x="267" y="760" name="top"/>
  <anchor x="510" y="760" name="topright"/>
  <outline>
    <contour>
      <point x="110" y="266" type="line"/>
      <point x="397" y="266" type="line"/>
      <point x="397" y="276" type="line"/>
      <point x="110" y="276" type="line"/>
    </contour>
    <component base="d"/>
  </outline>
</glyph>
<glyph name="uniA7FF" format="2">
  <advance width="824"/>
  <unicode hex="A7FF"/>
  <outline>
    <contour>
      <point x="4" y="0" type="line"/>
      <point x="162" y="0" type="line"/>
      <point x="162" y="10" type="line"/>
      <point x="122" y="10" type="line" smooth="yes"/>
      <point x="91" y="10"/>
      <point x="86" y="18"/>
      <point x="86" y="31" type="curve" smooth="yes"/>
      <point x="86" y="43"/>
      <point x="91" y="66"/>
      <point x="98" y="98" type="curve" smooth="yes"/>
      <point x="155" y="355" type="line" smooth="yes"/>
      <point x="165" y="399"/>
      <point x="173" y="434"/>
      <point x="179" y="468" type="curve"/>
      <point x="181" y="468" type="line"/>
      <point x="188" y="436"/>
      <point x="195" y="405"/>
      <point x="203" y="373" type="curve" smooth="yes"/>
      <point x="292" y="0" type="line"/>
      <point x="361" y="0" type="line"/>
      <point x="463" y="415" type="line"/>
      <point x="577" y="0" type="line"/>
      <point x="650" y="0" type="line"/>
      <point x="748" y="477" type="line" smooth="yes"/>
      <point x="757" y="523"/>
      <point x="765" y="526"/>
      <point x="806" y="526" type="curve" smooth="yes"/>
      <point x="826" y="526" type="line"/>
      <point x="826" y="536" type="line"/>
      <point x="667" y="536" type="line"/>
      <point x="667" y="526" type="line"/>
      <point x="705" y="526" type="line" smooth="yes"/>
      <point x="736" y="526"/>
      <point x="740" y="519"/>
      <point x="740" y="506" type="curve" smooth="yes"/>
      <point x="740" y="494"/>
      <point x="736" y="470"/>
      <point x="729" y="438" type="curve" smooth="yes"/>
      <point x="682" y="208" type="line" smooth="yes"/>
      <point x="673" y="162"/>
      <point x="666" y="126"/>
      <point x="660" y="94" type="curve"/>
      <point x="658" y="94" type="line"/>
      <point x="649" y="135"/>
      <point x="637" y="184"/>
      <point x="627" y="221" type="curve" smooth="yes"/>
      <point x="538" y="536" type="line"/>
      <point x="483" y="536" type="line"/>
      <point x="403" y="209" type="line" smooth="yes"/>
      <point x="395" y="175"/>
      <point x="384" y="129"/>
      <point x="377" y="99" type="curve"/>
      <point x="375" y="99" type="line"/>
      <point x="370" y="131"/>
      <point x="361" y="170"/>
      <point x="354" y="197" type="curve" smooth="yes"/>
      <point x="274" y="536" type="line"/>
      <point x="183" y="536" type="line"/>
      <point x="78" y="59" type="line" smooth="yes"/>
      <point x="69" y="13"/>
      <point x="61" y="10"/>
      <point x="20" y="10" type="curve" smooth="yes"/>
      <point x="4" y="10" type="line"/>
    </contour>
  </outline>
</glyph>
<glyph name="uniAB30" format="2">
  <advance width="531"/>
  <unicode hex="AB30"/>
  <anchor x="266" y="0" name="bottom"/>
  <anchor x="266" y="536" name="top"/>
  <outline>
    <contour>
      <point x="-19" y="280" type="line"/>
      <point x="518" y="280" type="line"/>
      <point x="518" y="290" type="line"/>
      <point x="-19" y="290" type="line"/>
    </contour>
    <component base="uni0251"/>
  </outline>
</glyph>
<glyph name="uniAB41" format="2">
  <advance width="764"/>
  <unicode hex="AB41"/>
  <anchor x="385" y="535" name="bottom"/>
  <anchor x="385" y="-1" name="top"/>
  <outline>
    <contour>
      <point x="368" y="-58" type="line"/>
      <point x="379" y="-58" type="line"/>
      <point x="673" y="590" type="line"/>
      <point x="662" y="590" type="line"/>
    </contour>
    <component base="oe" xScale="-1" yScale="-1" xOffset="769" yOffset="535"/>
  </outline>
</glyph>
<glyph name="uniAB42" format="2">
  <advance width="767"/>
  <unicode hex="AB42"/>
  <anchor x="385" y="535" name="bottom"/>
  <anchor x="385" y="-1" name="top"/>
  <outline>
    <contour>
      <point x="396" y="268" type="line"/>
      <point x="634" y="268" type="line"/>
      <point x="634" y="278" type="line"/>
      <point x="396" y="278" type="line"/>
    </contour>
    <component base="oe" xScale="-1" yScale="-1" xOffset="769" yOffset="535"/>
  </outline>
</glyph>
<glyph name="uniAB60" format="2">
  <advance width="789"/>
  <unicode hex="AB60"/>
  <outline>
    <contour>
      <point x="312" y="0" type="line"/>
      <point x="586" y="0" type="line" smooth="yes"/>
      <point x="710" y="0"/>
      <point x="772" y="59"/>
      <point x="772" y="158" type="curve" smooth="yes"/>
      <point x="772" y="279"/>
      <point x="688" y="302"/>
      <point x="587" y="302" type="curve" smooth="yes"/>
      <point x="508" y="302" type="line"/>
      <point x="508" y="458" type="line" smooth="yes"/>
      <point x="508" y="508"/>
      <point x="521" y="526"/>
      <point x="569" y="526" type="curve" smooth="yes"/>
      <point x="579" y="526" type="line"/>
      <point x="579" y="536" type="line"/>
      <point x="312" y="536" type="line"/>
      <point x="312" y="530" type="line"/>
      <point x="322" y="530" type="line" smooth="yes"/>
      <point x="367" y="530"/>
      <point x="378" y="513"/>
      <point x="378" y="457" type="curve" smooth="yes"/>
      <point x="378" y="76" type="line" smooth="yes"/>
      <point x="378" y="26"/>
      <point x="369" y="10"/>
      <point x="322" y="10" type="curve" smooth="yes"/>
      <point x="312" y="10" type="line"/>
    </contour>
    <contour>
      <point x="18" y="0" type="line"/>
      <point x="274" y="0" type="line"/>
      <point x="274" y="10" type="line"/>
      <point x="265" y="10" type="line" smooth="yes"/>
      <point x="227" y="10"/>
      <point x="210" y="24"/>
      <point x="210" y="78" type="curve" smooth="yes"/>
      <point x="210" y="462" type="line" smooth="yes"/>
      <point x="210" y="517"/>
      <point x="227" y="530"/>
      <point x="265" y="530" type="curve" smooth="yes"/>
      <point x="274" y="530" type="line"/>
      <point x="274" y="536" type="line"/>
      <point x="18" y="536" type="line"/>
      <point x="18" y="530" type="line"/>
      <point x="26" y="530" type="line" smooth="yes"/>
      <point x="63" y="530"/>
      <point x="80" y="517"/>
      <point x="80" y="463" type="curve" smooth="yes"/>
      <point x="80" y="78" type="line" smooth="yes"/>
      <point x="80" y="21"/>
      <point x="65" y="10"/>
      <point x="25" y="10" type="curve" smooth="yes"/>
      <point x="18" y="10" type="line"/>
    </contour>
    <contour>
      <point x="508" y="10" type="line"/>
      <point x="508" y="292" type="line"/>
      <point x="551" y="292" type="line" smooth="yes"/>
      <point x="614" y="292"/>
      <point x="640" y="255"/>
      <point x="640" y="161" type="curve" smooth="yes"/>
      <point x="640" y="54"/>
      <point x="613" y="10"/>
      <point x="554" y="10" type="curve" smooth="yes"/>
    </contour>
  </outline>
</glyph>
<glyph name="uniAB69" format="2">
  <advance width="455"/>
  <unicode hex="AB69"/>
  <anchor x="227" y="287" name="bottom"/>
  <anchor x="-2" y="287" name="bottomleft"/>
  <anchor x="227" y="609" name="top"/>
  <outline>
    <contour>
      <point x="419" y="325" type="curve" smooth="yes"/>
      <point x="347" y="609" type="line"/>
      <point x="302" y="609" type="line"/>
      <point x="236" y="360" type="line"/>
      <point x="162" y="609" type="line"/>
      <point x="114" y="609" type="line"/>
      <point x="50" y="323" type="line" smooth="yes"/>
      <point x="45" y="295"/>
      <point x="39" y="293"/>
      <point x="13" y="293" type="curve" smooth="yes"/>
      <point x="0" y="293" type="line"/>
      <point x="0" y="287" type="line"/>
      <point x="103" y="287" type="line"/>
      <point x="103" y="293" type="line"/>
      <point x="78" y="293" type="line" smooth="yes"/>
      <point x="58" y="293"/>
      <point x="56" y="298"/>
      <point x="56" y="305" type="curve" smooth="yes"/>
      <point x="56" y="313"/>
      <point x="58" y="327"/>
      <point x="63" y="346" type="curve" smooth="yes"/>
      <point x="93" y="484" type="line" smooth="yes"/>
      <point x="99" y="512"/>
      <point x="104" y="533"/>
      <point x="108" y="553" type="curve"/>
      <point x="109" y="553" type="line"/>
      <point x="115" y="528"/>
      <point x="123" y="499"/>
      <point x="129" y="476" type="curve" smooth="yes"/>
      <point x="187" y="287" type="line"/>
      <point x="223" y="287" type="line"/>
      <point x="275" y="485" type="line" smooth="yes"/>
      <point x="279" y="502"/>
      <point x="286" y="529"/>
      <point x="292" y="550" type="curve"/>
      <point x="293" y="550" type="line"/>
      <point x="296" y="530"/>
      <point x="302" y="507"/>
      <point x="306" y="491" type="curve" smooth="yes"/>
      <point x="342" y="349" type="line" smooth="yes"/>
      <point x="347" y="330"/>
      <point x="351" y="314"/>
      <point x="351" y="307" type="curve" smooth="yes"/>
      <point x="351" y="297"/>
      <point x="345" y="293"/>
      <point x="326" y="293" type="curve" smooth="yes"/>
      <point x="299" y="293" type="line"/>
      <point x="299" y="287" type="line"/>
      <point x="456" y="287" type="line"/>
      <point x="456" y="293" type="line"/>
      <point x="455" y="293" type="line" smooth="yes"/>
      <point x="431" y="293"/>
      <point x="426" y="296"/>
    </contour>
  </outline>
</glyph>
<glyph name="uniFE20" format="2">
  <unicode hex="FE20"/>
  <anchor x="2" y="536" name="_top"/>
  <outline>
    <contour>
      <point x="-315" y="593" type="curve"/>
      <point x="-304" y="593" type="line"/>
      <point x="-242" y="686"/>
      <point x="-171" y="717"/>
      <point x="2" y="717" type="curve"/>
      <point x="2" y="789" type="line"/>
      <point x="-8" y="789" type="line" smooth="yes"/>
      <point x="-151" y="789"/>
      <point x="-262" y="727"/>
    </contour>
  </outline>
</glyph>
<glyph name="uniFE21" format="2">
  <unicode hex="FE21"/>
  <anchor x="-2" y="536" name="_top"/>
  <outline>
    <contour>
      <point x="305" y="593" type="curve"/>
      <point x="315" y="593" type="line"/>
      <point x="262" y="727"/>
      <point x="151" y="789"/>
      <point x="8" y="789" type="curve" smooth="yes"/>
      <point x="-2" y="789" type="line"/>
      <point x="-2" y="717" type="line"/>
      <point x="171" y="717"/>
      <point x="243" y="686"/>
    </contour>
  </outline>
</glyph>
<glyph name="uniFE22" format="2">
  <unicode hex="FE22"/>
  <anchor x="2" y="536" name="_top"/>
  <outline>
    <contour>
      <point x="-313" y="594" type="curve"/>
      <point x="-303" y="594" type="line"/>
      <point x="-284" y="647"/>
      <point x="-252" y="679"/>
      <point x="-189" y="679" type="curve" smooth="yes"/>
      <point x="-117" y="679"/>
      <point x="-56" y="654"/>
      <point x="2" y="629" type="curve"/>
      <point x="2" y="701" type="line"/>
      <point x="-40" y="714"/>
      <point x="-101" y="732"/>
      <point x="-157" y="732" type="curve" smooth="yes"/>
      <point x="-257" y="732"/>
      <point x="-296" y="671"/>
    </contour>
  </outline>
</glyph>
<glyph name="uniFE23" format="2">
  <unicode hex="FE23"/>
  <anchor x="-3" y="536" name="_top"/>
  <outline>
    <contour>
      <point x="157" y="599" type="curve" smooth="yes"/>
      <point x="257" y="599"/>
      <point x="296" y="661"/>
      <point x="312" y="737" type="curve"/>
      <point x="302" y="737" type="line"/>
      <point x="283" y="683"/>
      <point x="250" y="653"/>
      <point x="189" y="653" type="curve" smooth="yes"/>
      <point x="117" y="653"/>
      <point x="55" y="678"/>
      <point x="-3" y="702" type="curve"/>
      <point x="-3" y="630" type="line"/>
      <point x="40" y="617"/>
      <point x="101" y="599"/>
    </contour>
  </outline>
</glyph>
<glyph name="combiningconjoiningmacron" format="2">
  <unicode hex="FE26"/>
  <anchor x="-1" y="536" name="_top"/>
  <outline>
    <contour>
      <point x="-314" y="700" type="line"/>
      <point x="312" y="700" type="line"/>
      <point x="312" y="720" type="line"/>
      <point x="-314" y="720" type="line"/>
    </contour>
  </outline>
</glyph>
<glyph name="uniFE28" format="2">
  <unicode hex="FE28"/>
  <anchor x="0" y="0" name="_bottom"/>
  <anchor x="164" y="536" name="braceleft"/>
  <outline>
    <contour>
      <point x="0" y="-211" type="line"/>
      <point x="156" y="-211"/>
      <point x="259" y="-164"/>
      <point x="327" y="-29" type="curve"/>
      <point x="317" y="-29" type="line"/>
      <point x="268" y="-112"/>
      <point x="173" y="-148"/>
      <point x="0" y="-148" type="curve"/>
    </contour>
  </outline>
</glyph>
<glyph name="uniFE29" format="2">
  <unicode hex="FE29"/>
  <anchor x="0" y="0" name="_bottom"/>
  <anchor x="-163" y="536" name="braceleft"/>
  <outline>
    <contour>
      <point x="-342" y="-199" type="curve"/>
      <point x="-333" y="-199" type="line"/>
      <point x="-322" y="-174"/>
      <point x="-306" y="-156"/>
      <point x="-290" y="-146" type="curve" smooth="yes"/>
      <point x="-272" y="-133"/>
      <point x="-248" y="-122"/>
      <point x="-208" y="-122" type="curve" smooth="yes"/>
      <point x="-142" y="-122"/>
      <point x="-87" y="-138"/>
      <point x="0" y="-164" type="curve"/>
      <point x="0" y="-96" type="line"/>
      <point x="-65" y="-76"/>
      <point x="-127" y="-64"/>
      <point x="-183" y="-64" type="curve" smooth="yes"/>
      <point x="-266" y="-64"/>
      <point x="-323" y="-114"/>
    </contour>
  </outline>
</glyph>
<glyph name="uniFE2A" format="2">
  <unicode hex="FE2A"/>
  <anchor x="0" y="0" name="_bottom"/>
  <anchor x="163" y="536" name="braceleft"/>
  <outline>
    <contour>
      <point x="183" y="-199" type="curve" smooth="yes"/>
      <point x="266" y="-199"/>
      <point x="323" y="-149"/>
      <point x="342" y="-64" type="curve"/>
      <point x="333" y="-64" type="line"/>
      <point x="322" y="-89"/>
      <point x="306" y="-107"/>
      <point x="290" y="-117" type="curve" smooth="yes"/>
      <point x="272" y="-131"/>
      <point x="248" y="-142"/>
      <point x="208" y="-142" type="curve" smooth="yes"/>
      <point x="142" y="-142"/>
      <point x="87" y="-125"/>
      <point x="0" y="-99" type="curve"/>
      <point x="0" y="-167" type="line"/>
      <point x="65" y="-187"/>
      <point x="128" y="-199"/>
    </contour>
  </outline>
</glyph>
<glyph name="uniFE2D" format="2">
  <unicode hex="FE2D"/>
  <anchor x="-1" y="0" name="_bottom"/>
  <anchor x="-1" y="536" name="braceleft"/>
  <outline>
    <contour>
      <point x="-314" y="-182" type="line"/>
      <point x="312" y="-182" type="line"/>
      <point x="312" y="-162" type="line"/>
      <point x="-314" y="-162" type="line"/>
    </contour>
  </outline>
</glyph>
<glyph name="uniFE2E" format="2">
  <unicode hex="FE2E"/>
  <anchor x="-73" y="536" name="_top"/>
  <outline>
    <contour>
      <point x="-82" y="572" type="curve" smooth="yes"/>
      <point x="-52" y="572"/>
      <point x="-47" y="587"/>
      <point x="-47" y="633" type="curve"/>
      <point x="116" y="633" type="line"/>
      <point x="116" y="653" type="line"/>
      <point x="-81" y="653" type="line" smooth="yes"/>
      <point x="-106" y="653"/>
      <point x="-116" y="643"/>
      <point x="-116" y="616" type="curve" smooth="yes"/>
      <point x="-116" y="586"/>
      <point x="-106" y="572"/>
    </contour>
  </outline>
</glyph>
<glyph name="uniFE2F" format="2">
  <unicode hex="FE2F"/>
  <anchor x="74" y="536" name="_top"/>
  <outline>
    <contour>
      <point x="-117" y="628" type="line"/>
      <point x="82" y="628" type="line" smooth="yes"/>
      <point x="106" y="628"/>
      <point x="117" y="638"/>
      <point x="117" y="665" type="curve" smooth="yes"/>
      <point x="117" y="695"/>
      <point x="106" y="709"/>
      <point x="82" y="709" type="curve" smooth="yes"/>
      <point x="52" y="709"/>
      <point x="47" y="694"/>
      <point x="47" y="648" type="curve"/>
      <point x="-117" y="648" type="line"/>
    </contour>
  </outline>
</glyph>
<glyph name="uni0268dotless" format="2">
  <advance width="290"/>
  <anchor x="145" y="0" name="bottom"/>
  <anchor x="145" y="536" name="top"/>
  <outline>
    <contour>
      <point x="7" y="271" type="line"/>
      <point x="285" y="271" type="line"/>
      <point x="285" y="281" type="line"/>
      <point x="7" y="281" type="line"/>
    </contour>
    <component base="idotless"/>
  </outline>
</glyph>
